# xmcd CD database file
#
# Track frame offsets:
#	150
#	4642
#	11590
#	18837
#	26145
#	33460
#	42055
#	48250
#	54345
#	67715
#	74820
#	82600
#	90232
#	94100
#	102672
#	110740
#	119335
#	129282
#	135660
#	141815
#
# Disc length: 1982 seconds
#
# Revision: 0
# Processed by: cddbd v1.5.1PL0 Copyright (c) Steve Scherf et al.
# Submitted via: CDex 1.51
#
DISCID=fa07bc14
DTITLE=Hinario Liturgico - Liturgia XII -T C Ano C-Dom 18 a 34
DYEAR=2005
DGENRE=Liturgico
TTITLE0=Aclamacao 20 a 24 dom 
TTITLE1=Salmo resp 21 dom
TTITLE2=Salmo resp 22 dom
TTITLE3=Comunhao 22 a 24 dom
TTITLE4=Salmo resp 23 e 24 dom
TTITLE5=Salmo resp 25 a 27dom
TTITLE6=Aclamacao 25 e 26 dom 
TTITLE7=Oferendas 25 a 27 dom 
TTITLE8=Comunhao 25 a 27 dom
TTITLE9=Salmo resp 28 dom
TTITLE10=Comunhao 28 a 33 dom
TTITLE11=Salmo resp 29 a 31 dom
TTITLE12=Aclamacao 29 - 31 e 32 dom 
TTITLE13=Salmo resp 32 dom
TTITLE14=Oferendas 32 a 34
TTITLE15=Salmo resp 33 dom
TTITLE16=Entrada 34 dom
TTITLE17=Salmo resp 34 dom
TTITLE18=Aclamacao 34 dom 
TTITLE19=Comunhao 34 dom
EXTD=YEAR: 2005
EXTT0=
EXTT1=
EXTT2=
EXTT3=
EXTT4=
EXTT5=
EXTT6=
EXTT7=
EXTT8=
EXTT9=
EXTT10=
EXTT11=
EXTT12=
EXTT13=
EXTT14=
EXTT15=
EXTT16=
EXTT17=
EXTT18=
EXTT19=
PLAYORDER=
